<svg xmlns="http://www.w3.org/2000/svg" viewBox="0 0 24 24" width="24" height="24">
  <path fill="#181717" d="M12 .297c-6.63 0-12 5.373-12 12 0 5.303 3.438 9.8 8.205 11.387.6.113.82-.258.82-.577 0-.285-.01-1.04-.015-2.04-3.338.725-4.042-1.61-4.042-1.61-.546-1.387-1.333-1.757-1.333-1.757-1.089-.744.084-.729.084-.729 1.205.084 1.84 1.236 1.84 1.236 1.07 1.835 2.809 1.305 3.495.998.108-.776.418-1.305.76-1.605-2.665-.3-5.466-1.335-5.466-5.93 0-1.31.468-2.38 1.236-3.22-.123-.303-.536-1.523.117-3.176 0 0 1.008-.322 3.3 1.23a11.52 11.52 0 013-.404c1.02.004 2.043.138 3 .404 2.28-1.552 3.285-1.23 3.285-1.23.657 1.653.245 2.873.12 3.176.77.84 1.236 1.91 1.236 3.22 0 4.61-2.807 5.625-5.48 5.92.43.37.815 1.096.815 2.21 0 1.595-.015 2.88-.015 3.27 0 .32.21.694.825.576C20.565 22.092 24 17.592 24 12.297c0-6.627-5.373-12-12-12"></path>
</svg>
