<svg xmlns="http://www.w3.org/2000/svg" viewBox="0 0 48 48" width="24" height="24">
  <path fill="#EA4335" d="M24 9.5c3.54 0 6.71 1.22 9.2 3.61l6.9-6.9C35.02 2.53 29.95 0 24 0 14.73 0 6.72 5.72 3.13 13.86l7.99 6.21C12.85 14.12 17.94 9.5 24 9.5z"></path>
  <path fill="#34A853" d="M46.09 24.5c0-1.54-.12-2.54-.28-3.65H24v7.06h12.48c-.54 2.88-2.2 5.31-4.69 6.95l7.67 5.97c4.5-4.14 7.91-10.29 7.91-16.33z"></path>
  <path fill="#4A90E2" d="M10.91 28.07l-7.99 6.21C5.11 40.14 14.73 48 24 48c6.41 0 12.16-2.11 16.58-5.75l-7.67-5.97c-2.22 1.49-4.98 2.38-8.91 2.38-5.07 0-9.16-4.62-10.99-10.59z"></path>
  <path fill="#FBBC05" d="M3.13 13.86L10.91 20.07c1.83-5.97 5.92-10.59 10.99-10.59 3.93 0 6.69.89 8.91 2.38l7.67-5.97C36.16 2.11 30.41 0 24 0 14.73 0 6.72 5.72 3.13 13.86z"></path>
</svg>
